<svg xmlns="http://www.w3.org/2000/svg" viewBox="0 0 240 160" role="img" aria-label="Monster Stampede thumbnail">
  <defs>
    <linearGradient id="bg" x1="0" x2="1" y1="0" y2="1">
      <stop offset="0" stop-color="#14532d"/>
      <stop offset="1" stop-color="#f97316"/>
    </linearGradient>
  </defs>
  <rect width="240" height="160" rx="8" fill="url(#bg)"/>
  <path d="M0 125c35-20 72-10 110-24 46-17 83-45 130-30v89H0z" fill="#111827" opacity=".35"/>
  <circle cx="80" cy="74" r="33" fill="#facc15"/>
  <path d="M53 68c-13-22 3-40 18-29 8-22 34-17 36 6 20-2 28 24 11 38 11 17-6 37-24 28-14 17-40 5-37-15-22-4-23-25-4-28z" fill="#7c3aed"/>
  <circle cx="72" cy="72" r="5" fill="#fff"/>
  <circle cx="96" cy="72" r="5" fill="#fff"/>
  <circle cx="72" cy="72" r="2" fill="#111827"/>
  <circle cx="96" cy="72" r="2" fill="#111827"/>
  <path d="M74 91c9 7 19 7 28 0" fill="none" stroke="#fff" stroke-width="5" stroke-linecap="round"/>
  <path d="M142 102h63" stroke="#fff" stroke-width="10" stroke-linecap="round" opacity=".9"/>
  <path d="M154 78h45" stroke="#fff" stroke-width="10" stroke-linecap="round" opacity=".7"/>
</svg>
