<svg xmlns="http://www.w3.org/2000/svg" viewBox="0 0 236 168" role="img" aria-label="Wheel of Fortune">
  <rect width="236" height="168" fill="#FCD34D"/>
  <circle cx="118" cy="83" r="59" fill="#FFF7E1" stroke="#1F0F2D" stroke-width="8"/>
  <path d="M118 83 118 26 A57 57 0 0 1 158 43 Z" fill="#E83A5C" transform="rotate(0 118 83)"/>
  <path d="M118 83 118 26 A57 57 0 0 1 158 43 Z" fill="#5B3FCB" transform="rotate(45 118 83)"/>
  <path d="M118 83 118 26 A57 57 0 0 1 158 43 Z" fill="#E83A5C" transform="rotate(90 118 83)"/>
  <path d="M118 83 118 26 A57 57 0 0 1 158 43 Z" fill="#5B3FCB" transform="rotate(135 118 83)"/>
  <path d="M118 83 118 26 A57 57 0 0 1 158 43 Z" fill="#E83A5C" transform="rotate(180 118 83)"/>
  <path d="M118 83 118 26 A57 57 0 0 1 158 43 Z" fill="#5B3FCB" transform="rotate(225 118 83)"/>
  <path d="M118 83 118 26 A57 57 0 0 1 158 43 Z" fill="#E83A5C" transform="rotate(270 118 83)"/>
  <path d="M118 83 118 26 A57 57 0 0 1 158 43 Z" fill="#5B3FCB" transform="rotate(315 118 83)"/>
  <circle cx="118" cy="83" r="16" fill="#FFF7E1" stroke="#1F0F2D" stroke-width="6"/>
  <path d="m118 10 13 25h-26z" fill="#10B981" stroke="#1F0F2D" stroke-width="6" stroke-linejoin="round"/>
  <rect x="67" y="137" width="102" height="17" rx="8" fill="#1F0F2D"/>
</svg>
